<?xml version="1.0" encoding="UTF-8"?><svg id="Layer_2" xmlns="http://www.w3.org/2000/svg" viewBox="0 0 321.72 252.73"><defs><style>.cls-1{fill:#fff;}</style></defs><g id="Layer_1-2"><g><path class="cls-1" d="m138.41,131.17h11.6c4.14,0,7.5-3.36,7.5-7.5V57.67C157.51,25.95,150.89,0,99.84,0h-37.18C11.07,0,4.99,25.95,4.99,57.67v15.83c0,23.75,12.74,42.5,31.26,51.62C15.04,133.84,0,154.74,0,179v65.57c0,4.07,3.3,7.37,7.37,7.37h96.91c45.63.78,58.23-23.54,58.23-58.23v-14.72c0-20.89-9.52-37.73-24.09-47.83Z"/><path class="cls-1" d="m314.49,121.56h-31.73v-61.86c0-27.55-12.18-50.09-50.09-50.09h-52.75c-3.92,0-7.13,3.21-7.13,7.13v185.9s0,.06,0,.09c.09,27.35,4.83,49.63,49.74,49.99.11,0,.23,0,.34,0h47.99c43.5-.78,50.86-22.89,50.86-50.86v-73.08c0-3.98-3.25-7.23-7.23-7.23Z"/></g></g></svg>