<svg width="423" height="296" viewBox="0 0 423 296" fill="none" xmlns="http://www.w3.org/2000/svg">
<g clip-path="url(#clip0_26_168)">
<g opacity="0.99">
<path d="M3.34927 115.754L16.2441 98.5548C24.4834 105.002 32.7226 106.794 38.8184 106.794C45.2658 106.794 47.7778 105.002 47.7778 101.419C47.7778 96.7629 40.7945 94.971 31.2992 91.3872C18.7561 86.7316 8.35647 78.1237 8.35647 64.5086C8.35647 46.9412 22.6915 35.4863 43.8256 35.4863C57.4405 35.4863 68.9118 40.5104 76.7994 47.3096L63.9046 64.5086C57.273 59.6687 50.6414 58.061 44.9141 58.061C39.5385 58.061 37.0265 59.8529 37.0265 63.0851C37.0265 67.0206 41.3303 68.8125 52.8017 72.3963C66.4166 76.7002 76.4478 85.2914 76.4478 99.6266C76.4478 116.474 63.1845 129.369 38.0983 129.369C26.6269 129.369 12.6603 124.713 3.33252 115.754H3.34927Z" stroke="white" stroke-width="3" stroke-miterlimit="10"/>
<path d="M95.0867 2.51196H125.9V31.5342L124.46 46.9413C130.556 41.5655 139.147 35.4697 151.338 35.4697C171.049 35.4697 179.288 49.805 179.288 72.028V127.226H148.475V75.9803C148.475 64.5087 145.611 61.645 139.515 61.645C133.788 61.645 130.556 64.157 125.9 68.4609V127.226H95.0867V2.51196Z" stroke="white" stroke-width="3" stroke-miterlimit="10"/>
<path d="M199.367 101.787C199.367 83.1479 213.702 72.7648 248.099 69.181C247.379 62.7335 243.444 59.8698 235.556 59.8698C229.109 59.8698 222.293 62.0134 212.982 67.0374L202.231 47.3264C214.774 39.8071 227.669 35.5032 241.652 35.5032C264.946 35.5032 278.913 48.0465 278.913 77.4372V127.259H253.827L251.683 118.651H250.963C243.796 125.099 235.908 129.403 226.228 129.403C209.381 129.403 199.35 116.508 199.35 101.804L199.367 101.787ZM248.099 99.6435V87.4518C233.413 89.5954 228.74 94.2678 228.74 99.2751C228.74 103.395 231.604 105.723 236.98 105.723C242.004 105.723 244.867 103.211 248.083 99.6267L248.099 99.6435Z" stroke="white" stroke-width="3" stroke-miterlimit="10"/>
<path d="M297.92 82.4277C297.92 53.4054 319.071 35.4863 340.925 35.4863C367.452 35.4863 379.995 54.8289 379.995 78.8438C379.995 84.2196 379.275 89.5953 378.739 91.7389H327.679C330.543 102.49 338.43 106.074 348.461 106.074C354.557 106.074 360.653 104.282 367.1 100.698L376.78 118.969C367.1 125.785 354.205 129.369 344.174 129.369C318.016 129.369 297.954 112.17 297.954 82.4277H297.92ZM353.82 71.6762C353.82 64.8602 350.957 58.7811 341.629 58.7811C334.813 58.7811 329.086 62.7167 327.294 71.6762H353.804H353.82Z" stroke="white" stroke-width="3" stroke-miterlimit="10"/>
<path d="M10.5168 259.81V166.631H41.3304V260.882C41.3304 266.978 44.1941 268.77 46.3544 268.77C47.4261 268.77 48.1462 268.77 49.5864 268.418L53.1702 290.993C49.9381 292.433 44.9309 293.505 38.1151 293.505C17.3327 293.505 10.5168 279.89 10.5168 259.827V259.81Z" stroke="white" stroke-width="3" stroke-miterlimit="10"/>
<path d="M62.8328 246.547C62.8328 216.804 84.3353 199.605 107.261 199.605C130.187 199.605 151.69 216.804 151.69 246.547C151.69 276.289 130.187 293.488 107.261 293.488C84.3353 293.488 62.8328 276.289 62.8328 246.547ZM120.173 246.547C120.173 232.931 116.589 224.324 107.278 224.324C97.9669 224.324 94.3832 232.931 94.3832 246.547C94.3832 260.162 97.9669 268.77 107.278 268.77C116.589 268.77 120.173 260.162 120.173 246.547Z" stroke="white" stroke-width="3" stroke-miterlimit="10"/>
<path d="M171.417 201.749H196.503L198.647 217.156H199.367C205.999 204.964 216.03 199.589 224.805 199.589C230.365 199.589 233.413 200.309 235.908 201.381L230.181 227.539C226.949 226.819 224.805 226.467 220.87 226.467C214.422 226.467 206.535 230.403 202.231 241.523V291.344H171.417V201.749Z" stroke="white" stroke-width="3" stroke-miterlimit="10"/>
<path d="M243.461 246.547C243.461 216.804 266.035 199.605 291.473 199.605C302.224 199.605 310.832 203.189 317.631 208.916L303.296 227.907C299.361 225.044 296.48 224.324 293.265 224.324C281.793 224.324 274.994 232.931 274.994 246.547C274.994 260.162 282.514 268.77 292.193 268.77C297.569 268.77 302.224 266.978 306.528 263.746L318.351 283.105C309.392 290.993 297.92 293.505 288.609 293.505C263.171 293.505 243.461 276.306 243.461 246.563V246.547Z" stroke="white" stroke-width="3" stroke-miterlimit="10"/>
<path d="M336.27 166.631H367.083V195.653L365.643 211.06C371.739 205.684 380.33 199.589 392.521 199.589C412.232 199.589 420.471 213.924 420.471 236.147V291.344H389.658V240.099C389.658 228.628 386.794 225.764 380.698 225.764C374.971 225.764 371.739 228.276 367.083 232.58V291.344H336.27V166.631Z" stroke="white" stroke-width="3" stroke-miterlimit="10"/>
</g>
</g>
<defs>
<clipPath id="clip0_26_168">
<rect width="423" height="296" fill="white"/>
</clipPath>
</defs>
</svg>
